<svg width="46" height="46" viewBox="0 0 46 46" fill="none" xmlns="http://www.w3.org/2000/svg">
<g filter="url(#filter0_d)">
<path d="M32.729 6H12.7C11.7187 6 10.7776 6.38982 10.0837 7.08371C9.38982 7.77759 9 8.7187 9 9.7V29.727C9 30.7083 9.38982 31.6494 10.0837 32.3433C10.7776 33.0372 11.7187 33.427 12.7 33.427H22.58L22.597 23.627H20.048C19.8889 23.627 19.7363 23.5638 19.6237 23.4513C19.5112 23.3387 19.448 23.1861 19.448 23.027L19.436 19.868C19.436 19.7089 19.4992 19.5563 19.6117 19.4437C19.7243 19.3312 19.8769 19.268 20.036 19.268H22.577V16.211C22.577 12.669 24.74 10.74 27.9 10.74H30.493C30.6521 10.74 30.8047 10.8032 30.9173 10.9157C31.0298 11.0283 31.093 11.1809 31.093 11.34V14C31.093 14.1591 31.0298 14.3117 30.9173 14.4243C30.8047 14.5368 30.6521 14.6 30.493 14.6H28.9C27.182 14.6 26.849 15.417 26.849 16.615V19.257H30.625C30.7101 19.2564 30.7944 19.2739 30.8723 19.3084C30.9501 19.3429 31.0197 19.3936 31.0765 19.457C31.1332 19.5205 31.1758 19.5953 31.2014 19.6765C31.227 19.7577 31.2351 19.8435 31.225 19.928L30.851 23.087C30.8338 23.2337 30.763 23.3689 30.6523 23.4667C30.5416 23.5645 30.3987 23.618 30.251 23.617H26.868L26.851 33.417H32.73C33.7113 33.417 34.6524 33.0272 35.3463 32.3333C36.0402 31.6394 36.43 30.6983 36.43 29.717V9.7C36.43 9.21403 36.3343 8.73281 36.1483 8.28384C35.9623 7.83487 35.6896 7.42694 35.3459 7.08335C35.0023 6.73976 34.5943 6.46724 34.1452 6.28136C33.6962 6.09548 33.215 5.99987 32.729 6V6Z" fill="#148D3B"/>
</g>
<defs>
<filter id="filter0_d" x="3" y="3" width="39.43" height="39.427" filterUnits="userSpaceOnUse" color-interpolation-filters="sRGB">
<feFlood flood-opacity="0" result="BackgroundImageFix"/>
<feColorMatrix in="SourceAlpha" type="matrix" values="0 0 0 0 0 0 0 0 0 0 0 0 0 0 0 0 0 0 127 0"/>
<feOffset dy="3"/>
<feGaussianBlur stdDeviation="3"/>
<feColorMatrix type="matrix" values="0 0 0 0 0 0 0 0 0 0 0 0 0 0 0 0 0 0 0.161 0"/>
<feBlend mode="normal" in2="BackgroundImageFix" result="effect1_dropShadow"/>
<feBlend mode="normal" in="SourceGraphic" in2="effect1_dropShadow" result="shape"/>
</filter>
</defs>
</svg>
