<svg width="47" height="47" viewBox="0 0 47 47" fill="none" xmlns="http://www.w3.org/2000/svg">
<g filter="url(#filter0_d)">
<path d="M28.89 6H17.44C15.2023 6.00238 13.0569 6.89236 11.4746 8.47465C9.89236 10.0569 9.00238 12.2023 9 14.44L9 25.89C9.00238 28.1277 9.89236 30.2731 11.4746 31.8554C13.0569 33.4376 15.2023 34.3276 17.44 34.33H28.89C31.1277 34.3276 33.2731 33.4376 34.8554 31.8554C36.4376 30.2731 37.3276 28.1277 37.33 25.89V14.44C37.3276 12.2023 36.4376 10.0569 34.8554 8.47465C33.2731 6.89236 31.1277 6.00238 28.89 6V6ZM34.48 25.89C34.48 27.3726 33.8911 28.7944 32.8427 29.8427C31.7944 30.8911 30.3726 31.48 28.89 31.48H17.44C15.9574 31.48 14.5356 30.8911 13.4873 29.8427C12.4389 28.7944 11.85 27.3726 11.85 25.89V14.44C11.85 12.9574 12.4389 11.5356 13.4873 10.4873C14.5356 9.43894 15.9574 8.85 17.44 8.85H28.89C30.3726 8.85 31.7944 9.43894 32.8427 10.4873C33.8911 11.5356 34.48 12.9574 34.48 14.44V25.89Z" fill="#148D3B"/>
</g>
<path d="M23.165 12.838C21.7159 12.838 20.2993 13.2677 19.0943 14.0728C17.8894 14.8779 16.9503 16.0222 16.3957 17.3611C15.8412 18.6999 15.6961 20.1731 15.9788 21.5944C16.2615 23.0157 16.9593 24.3213 17.984 25.346C19.0087 26.3707 20.3143 27.0685 21.7356 27.3512C23.1569 27.6339 24.6301 27.4888 25.9689 26.9343C27.3078 26.3797 28.4521 25.4406 29.2572 24.2357C30.0623 23.0308 30.492 21.6142 30.492 20.165C30.4899 18.2224 29.7173 16.36 28.3436 14.9864C26.97 13.6128 25.1076 12.8401 23.165 12.838V12.838ZM23.165 24.638C22.2795 24.638 21.414 24.3754 20.6777 23.8835C19.9415 23.3916 19.3677 22.6923 19.0288 21.8743C18.69 21.0562 18.6013 20.1561 18.774 19.2876C18.9468 18.4191 19.3732 17.6214 19.9993 16.9953C20.6254 16.3692 21.4231 15.9428 22.2916 15.77C23.16 15.5973 24.0602 15.686 24.8783 16.0248C25.6963 16.3637 26.3956 16.9375 26.8875 17.6737C27.3794 18.41 27.642 19.2755 27.642 20.161C27.642 21.3484 27.1703 22.4871 26.3307 23.3267C25.4911 24.1663 24.3524 24.638 23.165 24.638V24.638Z" fill="#148D3B"/>
<path d="M30.506 14.649C31.4758 14.649 32.262 13.8628 32.262 12.893C32.262 11.9232 31.4758 11.137 30.506 11.137C29.5362 11.137 28.75 11.9232 28.75 12.893C28.75 13.8628 29.5362 14.649 30.506 14.649Z" fill="#148D3B"/>
<defs>
<filter id="filter0_d" x="3" y="3" width="40.33" height="40.33" filterUnits="userSpaceOnUse" color-interpolation-filters="sRGB">
<feFlood flood-opacity="0" result="BackgroundImageFix"/>
<feColorMatrix in="SourceAlpha" type="matrix" values="0 0 0 0 0 0 0 0 0 0 0 0 0 0 0 0 0 0 127 0"/>
<feOffset dy="3"/>
<feGaussianBlur stdDeviation="3"/>
<feColorMatrix type="matrix" values="0 0 0 0 0 0 0 0 0 0 0 0 0 0 0 0 0 0 0.161 0"/>
<feBlend mode="normal" in2="BackgroundImageFix" result="effect1_dropShadow"/>
<feBlend mode="normal" in="SourceGraphic" in2="effect1_dropShadow" result="shape"/>
</filter>
</defs>
</svg>
