<svg width="48" height="43" viewBox="0 0 48 43" fill="none" xmlns="http://www.w3.org/2000/svg">
<g filter="url(#filter0_d)">
<path d="M38.218 8.87402C37.5583 9.16635 36.8731 9.39733 36.171 9.56403C36.9492 8.82551 37.5288 7.90275 37.856 6.88102V6.88102C37.8767 6.81631 37.8772 6.74684 37.8574 6.68184C37.8377 6.61684 37.7987 6.55937 37.7455 6.51707C37.6923 6.47476 37.6276 6.44962 37.5598 6.44497C37.492 6.44031 37.4245 6.45638 37.366 6.49102V6.49102C36.3902 7.07013 35.336 7.5056 34.236 7.78402C34.1706 7.80042 34.1034 7.80848 34.036 7.80803C33.834 7.80737 33.6392 7.73306 33.488 7.59903C32.3184 6.56754 30.8125 5.99859 29.253 5.99902C28.5651 6.00085 27.8815 6.10637 27.225 6.31202C26.2016 6.63182 25.2785 7.21158 24.5461 7.99469C23.8136 8.7778 23.2968 9.73749 23.046 10.78C22.8588 11.5509 22.8074 12.3485 22.894 13.137C22.8977 13.1694 22.8945 13.2022 22.8845 13.2333C22.8745 13.2643 22.858 13.2929 22.836 13.317C22.8138 13.3421 22.7866 13.3622 22.7561 13.376C22.7256 13.3898 22.6925 13.397 22.659 13.397H22.636C20.3997 13.1935 18.2269 12.5432 16.2464 11.4848C14.2659 10.4263 12.5179 8.98122 11.106 7.23502V7.23502C11.0718 7.19308 11.0279 7.16005 10.9782 7.13876C10.9284 7.11747 10.8742 7.10856 10.8203 7.11279C10.7663 7.11701 10.7142 7.13425 10.6683 7.16303C10.6225 7.19181 10.5843 7.23127 10.557 7.27803V7.27803C9.84369 8.50693 9.55904 9.93808 9.74784 11.3464C9.93665 12.7548 10.5882 14.0604 11.6 15.058C11.0898 14.9373 10.5986 14.7472 10.14 14.493V14.493C10.0893 14.4643 10.032 14.4493 9.97375 14.4496C9.91548 14.4498 9.85829 14.4652 9.8078 14.4943C9.75731 14.5234 9.71528 14.5651 9.68586 14.6154C9.65644 14.6657 9.64064 14.7228 9.64002 14.781V14.781C9.62573 16.0206 9.97124 17.2378 10.6347 18.285C11.2982 19.3322 12.2511 20.1645 13.378 20.681H13.241C12.8793 20.6816 12.5184 20.6481 12.163 20.581V20.581C12.106 20.5701 12.0471 20.5742 11.9921 20.593C11.9371 20.6117 11.888 20.6444 11.8494 20.6879C11.8109 20.7313 11.7843 20.7841 11.7724 20.8409C11.7604 20.8977 11.7633 20.9567 11.781 21.012V21.012C12.1428 22.1348 12.8072 23.1362 13.7011 23.9059C14.5951 24.6756 15.6839 25.184 16.848 25.375C14.8928 26.6895 12.589 27.3891 10.233 27.384H9.50002C9.39028 27.3831 9.28342 27.4191 9.19657 27.4862C9.10971 27.5533 9.0479 27.6476 9.02102 27.754C8.99521 27.8611 9.00496 27.9737 9.0488 28.0747C9.09264 28.1757 9.16819 28.2597 9.26402 28.314C11.9451 29.8726 14.9909 30.6938 18.092 30.694C20.6934 30.7181 23.2684 30.172 25.636 29.094C27.7444 28.1155 29.6247 26.7067 31.156 24.958C32.6192 23.2934 33.7647 21.3747 34.536 19.297C35.2833 17.3147 35.6723 15.2154 35.685 13.097V12.997C35.6853 12.8342 35.7221 12.6734 35.7927 12.5267C35.8633 12.3799 35.9659 12.2509 36.093 12.149C37.0764 11.3507 37.9343 10.4092 38.638 9.35603C38.6781 9.2957 38.6976 9.22401 38.6935 9.1517C38.6894 9.07939 38.662 9.01036 38.6153 8.95494C38.5687 8.89952 38.5054 8.86071 38.4348 8.84432C38.3643 8.82793 38.2903 8.83484 38.224 8.86403L38.218 8.87402Z" fill="#148D3B"/>
</g>
<defs>
<filter id="filter0_d" x="3.0069" y="2.99902" width="41.6871" height="36.6958" filterUnits="userSpaceOnUse" color-interpolation-filters="sRGB">
<feFlood flood-opacity="0" result="BackgroundImageFix"/>
<feColorMatrix in="SourceAlpha" type="matrix" values="0 0 0 0 0 0 0 0 0 0 0 0 0 0 0 0 0 0 127 0"/>
<feOffset dy="3"/>
<feGaussianBlur stdDeviation="3"/>
<feColorMatrix type="matrix" values="0 0 0 0 0 0 0 0 0 0 0 0 0 0 0 0 0 0 0.161 0"/>
<feBlend mode="normal" in2="BackgroundImageFix" result="effect1_dropShadow"/>
<feBlend mode="normal" in="SourceGraphic" in2="effect1_dropShadow" result="shape"/>
</filter>
</defs>
</svg>
