<svg width="565" height="64" viewBox="0 0 565 64" fill="none" xmlns="http://www.w3.org/2000/svg">
<path fill-rule="evenodd" clip-rule="evenodd" d="M63.3218 28.5544C65.0824 45.9953 52.3711 61.5611 34.9303 63.3218C17.4894 65.0824 1.92355 52.3711 0.16291 34.9303C-1.59773 17.4894 11.1136 1.92355 28.5544 0.16291C45.9953 -1.59773 61.5611 11.1136 63.3218 28.5544ZM46.2012 13.9731C43.1857 0.388504 17.7907 13.0465 10.7711 20.9611C10.7711 20.9611 12.4665 19.9677 19.9792 20.1272C21.4716 20.1589 23.5066 20.3886 25.7896 20.6463C34.999 21.6859 48.2452 23.1811 46.2012 13.9731ZM52 42.0042C44.0799 49.5519 16.9077 60.2927 15.08 45.9232C13.8411 36.1832 27.2635 38.9775 36.5954 40.9203C38.9088 41.4019 40.9709 41.8312 42.4958 42.0042C50.1722 42.8751 52 42.0042 52 42.0042Z" fill="#C8AD02"/>
<path d="M96.44 18.9664C98.92 18.9664 101.067 19.3798 102.88 20.2064C104.72 21.0331 106.133 22.2064 107.12 23.7264C108.107 25.2464 108.6 27.0464 108.6 29.1264C108.6 31.1798 108.107 32.9798 107.12 34.5264C106.133 36.0464 104.72 37.2198 102.88 38.0464C101.067 38.8464 98.92 39.2464 96.44 39.2464H90.8V46.9664H84.32V18.9664H96.44ZM96.08 33.9664C98.0267 33.9664 99.5067 33.5531 100.52 32.7264C101.533 31.8731 102.04 30.6731 102.04 29.1264C102.04 27.5531 101.533 26.3531 100.52 25.5264C99.5067 24.6731 98.0267 24.2464 96.08 24.2464H90.8V33.9664H96.08ZM118.245 24.2464H109.285V18.9664H133.685V24.2464H124.725V46.9664H118.245V24.2464ZM170.18 41.7664V46.9664H148.5V18.9664H169.66V24.1664H154.94V30.2464H167.94V35.2864H154.94V41.7664H170.18ZM193.176 46.9664L187.776 39.1664H187.456H181.816V46.9664H175.336V18.9664H187.456C189.936 18.9664 192.082 19.3798 193.896 20.2064C195.736 21.0331 197.149 22.2064 198.136 23.7264C199.122 25.2464 199.616 27.0464 199.616 29.1264C199.616 31.2064 199.109 33.0064 198.096 34.5264C197.109 36.0198 195.696 37.1664 193.856 37.9664L200.136 46.9664H193.176ZM193.056 29.1264C193.056 27.5531 192.549 26.3531 191.536 25.5264C190.522 24.6731 189.042 24.2464 187.096 24.2464H181.816V34.0064H187.096C189.042 34.0064 190.522 33.5798 191.536 32.7264C192.549 31.8731 193.056 30.6731 193.056 29.1264ZM223.19 40.9664H210.19L207.71 46.9664H201.07L213.55 18.9664H219.95L232.47 46.9664H225.67L223.19 40.9664ZM221.15 36.0464L216.71 25.3264L212.27 36.0464H221.15ZM248.384 47.4464C245.531 47.4464 242.944 46.8331 240.624 45.6064C238.331 44.3531 236.517 42.6331 235.184 40.4464C233.877 38.2331 233.224 35.7398 233.224 32.9664C233.224 30.1931 233.877 27.7131 235.184 25.5264C236.517 23.3131 238.331 21.5931 240.624 20.3664C242.944 19.1131 245.544 18.4864 248.424 18.4864C250.851 18.4864 253.037 18.9131 254.984 19.7664C256.957 20.6198 258.611 21.8464 259.944 23.4464L255.784 27.2864C253.891 25.0998 251.544 24.0064 248.744 24.0064C247.011 24.0064 245.464 24.3931 244.104 25.1664C242.744 25.9131 241.677 26.9664 240.904 28.3264C240.157 29.6864 239.784 31.2331 239.784 32.9664C239.784 34.6998 240.157 36.2464 240.904 37.6064C241.677 38.9664 242.744 40.0331 244.104 40.8064C245.464 41.5531 247.011 41.9264 248.744 41.9264C251.544 41.9264 253.891 40.8198 255.784 38.6064L259.944 42.4464C258.611 44.0731 256.957 45.3131 254.984 46.1664C253.011 47.0198 250.811 47.4464 248.384 47.4464ZM264.32 18.9664H270.8V46.9664H264.32V18.9664ZM283.245 24.2464H274.285V18.9664H298.685V24.2464H289.725V46.9664H283.245V24.2464ZM319.205 40.9664H306.205L303.725 46.9664H297.085L309.565 18.9664H315.965L328.485 46.9664H321.685L319.205 40.9664ZM317.165 36.0464L312.725 25.3264L308.285 36.0464H317.165ZM361.158 40.9664H348.158L345.678 46.9664H339.038L351.518 18.9664H357.918L370.438 46.9664H363.638L361.158 40.9664ZM359.118 36.0464L354.678 25.3264L350.238 36.0464H359.118ZM382.543 47.4464C380.33 47.4464 378.183 47.1531 376.103 46.5664C374.05 45.9531 372.397 45.1664 371.143 44.2064L373.343 39.3264C374.543 40.2064 375.97 40.9131 377.623 41.4464C379.277 41.9798 380.93 42.2464 382.583 42.2464C384.423 42.2464 385.783 41.9798 386.663 41.4464C387.543 40.8864 387.983 40.1531 387.983 39.2464C387.983 38.5798 387.717 38.0331 387.183 37.6064C386.677 37.1531 386.01 36.7931 385.183 36.5264C384.383 36.2598 383.29 35.9664 381.903 35.6464C379.77 35.1398 378.023 34.6331 376.663 34.1264C375.303 33.6198 374.13 32.8064 373.143 31.6864C372.183 30.5664 371.703 29.0731 371.703 27.2064C371.703 25.5798 372.143 24.1131 373.023 22.8064C373.903 21.4731 375.223 20.4198 376.983 19.6464C378.77 18.8731 380.943 18.4864 383.503 18.4864C385.29 18.4864 387.037 18.6998 388.743 19.1264C390.45 19.5531 391.943 20.1664 393.223 20.9664L391.223 25.8864C388.637 24.4198 386.05 23.6864 383.463 23.6864C381.65 23.6864 380.303 23.9798 379.423 24.5664C378.57 25.1531 378.143 25.9264 378.143 26.8864C378.143 27.8464 378.637 28.5664 379.623 29.0464C380.637 29.4998 382.17 29.9531 384.223 30.4064C386.357 30.9131 388.103 31.4198 389.463 31.9264C390.823 32.4331 391.983 33.2331 392.943 34.3264C393.93 35.4198 394.423 36.8998 394.423 38.7664C394.423 40.3664 393.97 41.8331 393.063 43.1664C392.183 44.4731 390.85 45.5131 389.063 46.2864C387.277 47.0598 385.103 47.4464 382.543 47.4464ZM404.261 24.2464H395.301V18.9664H419.701V24.2464H410.741V46.9664H404.261V24.2464ZM440.221 40.9664H427.221L424.741 46.9664H418.101L430.581 18.9664H436.981L449.501 46.9664H442.701L440.221 40.9664ZM438.181 36.0464L433.741 25.3264L429.301 36.0464H438.181ZM477.886 46.9664L477.846 30.1664L469.606 44.0064H466.686L458.486 30.5264V46.9664H452.406V18.9664H457.766L468.246 36.3664L478.566 18.9664H483.886L483.966 46.9664H477.886ZM490.609 18.9664H497.089V46.9664H490.609V18.9664ZM503.734 18.9664H516.454C519.494 18.9664 522.174 19.5531 524.494 20.7264C526.841 21.8731 528.654 23.4998 529.934 25.6064C531.241 27.7131 531.894 30.1664 531.894 32.9664C531.894 35.7664 531.241 38.2198 529.934 40.3264C528.654 42.4331 526.841 44.0731 524.494 45.2464C522.174 46.3931 519.494 46.9664 516.454 46.9664H503.734V18.9664ZM516.134 41.6464C518.934 41.6464 521.161 40.8731 522.814 39.3264C524.494 37.7531 525.334 35.6331 525.334 32.9664C525.334 30.2998 524.494 28.1931 522.814 26.6464C521.161 25.0731 518.934 24.2864 516.134 24.2864H510.214V41.6464H516.134ZM554.83 40.9664H541.83L539.35 46.9664H532.71L545.19 18.9664H551.59L564.11 46.9664H557.31L554.83 40.9664ZM552.79 36.0464L548.35 25.3264L543.91 36.0464H552.79Z" fill="black"/>
<path fill-rule="evenodd" clip-rule="evenodd" d="M5.67473 50.0684L5.62097 49.9032C6.95562 51.8344 8.5219 53.6302 10.3173 55.2432C8.55205 53.6573 7.00387 51.9199 5.67473 50.0684ZM10.3173 55.2432C3.89476 49.4732 4.99411 37.7768 9.40371 32.8686C15.1739 26.4458 25.3255 25.6189 31.748 31.3889C38.1708 37.1592 49.4452 35.6818 54.3905 30.1772C60.1581 23.7574 59.1118 13.7007 52.6964 7.92926C65.8631 19.766 67.4357 39.6481 55.6023 52.8197C43.7664 65.994 23.4916 67.0791 10.3173 55.2432ZM51.7022 42.1494C43.9975 49.3986 17.5643 59.7146 15.7863 45.9134C14.5812 36.5586 27.6385 39.2424 36.7166 41.1084C38.9671 41.5709 40.9731 41.9832 42.4566 42.1494C49.9242 42.9859 51.7022 42.1494 51.7022 42.1494Z" fill="#148D3B"/>
</svg>
