<svg width="254" height="254" viewBox="0 0 254 254" fill="none" xmlns="http://www.w3.org/2000/svg">
<path d="M254 123.733C254 192.063 198.176 247.457 129.298 247.457C107.441 247.457 86.9085 241.866 69.0348 232.076L0 254L22.5036 187.599C11.1566 168.963 4.62165 147.081 4.62165 123.724C4.62993 55.3935 60.4375 0 129.315 0C198.184 0.016565 254 55.4018 254 123.733ZM129.29 19.729C71.4864 19.729 24.4666 66.3927 24.4666 123.757C24.4666 146.518 31.8877 167.588 44.4357 184.733L31.3493 223.355L71.6189 210.558C88.184 221.425 108.004 227.753 129.29 227.753C187.094 227.753 234.13 181.097 234.13 123.733C234.147 66.3927 187.102 19.729 129.29 19.729ZM192.27 152.233C191.492 150.982 189.454 150.22 186.406 148.696C183.367 147.172 168.317 139.842 165.526 138.848C162.71 137.829 160.673 137.316 158.635 140.356C156.622 143.395 150.758 150.22 148.961 152.258C147.18 154.287 145.4 154.544 142.343 153.044C139.287 151.504 129.431 148.323 117.753 137.995C108.667 129.944 102.529 120.03 100.757 116.991C98.9595 113.959 100.575 112.319 102.09 110.812C103.457 109.445 105.147 107.267 106.679 105.486C108.211 103.722 108.716 102.471 109.735 100.442C110.737 98.4129 110.232 96.6487 109.478 95.1164C108.716 93.5925 102.612 78.6839 100.053 72.6128C97.5101 66.55 94.9674 67.5522 93.1783 67.5522C91.3976 67.5522 89.3601 67.3037 87.3226 67.3037C85.2851 67.3037 81.9721 68.0409 79.1809 71.0806C76.3897 74.1203 68.4881 81.4503 68.4881 96.3754C68.4881 111.317 79.4293 125.72 80.9616 127.741C82.5022 129.754 102.115 161.385 133.183 173.527C164.267 185.661 164.267 181.611 169.866 181.097C175.482 180.584 187.955 173.767 190.49 166.694C193.041 159.588 193.041 153.5 192.27 152.233Z" fill="white"/>
</svg>
